<svg viewBox="0 0 330 200" xmlns="http://www.w3.org/2000/svg"><g><g><g><g><g><line x1="68.3125" y1="177" x2="63.3125" y2="177" style="visibility: inherit;" fill="rgb(0, 0, 0)" stroke="rgb(204, 204, 204)" stroke-width="1px"></line><line x1="68.3125" y1="159.3" x2="63.3125" y2="159.3" style="visibility: inherit;" fill="rgb(0, 0, 0)" stroke="rgb(204, 204, 204)" stroke-width="1px"></line><line x1="68.3125" y1="141.6" x2="63.3125" y2="141.6" style="visibility: inherit;" fill="rgb(0, 0, 0)" stroke="rgb(204, 204, 204)" stroke-width="1px"></line><line x1="68.3125" y1="123.9" x2="63.3125" y2="123.9" style="visibility: inherit;" fill="rgb(0, 0, 0)" stroke="rgb(204, 204, 204)" stroke-width="1px"></line><line x1="68.3125" y1="106.2" x2="63.3125" y2="106.2" style="visibility: inherit;" fill="rgb(0, 0, 0)" stroke="rgb(204, 204, 204)" stroke-width="1px"></line><line x1="68.3125" y1="88.5" x2="63.3125" y2="88.5" style="visibility: inherit;" fill="rgb(0, 0, 0)" stroke="rgb(204, 204, 204)" stroke-width="1px"></line><line x1="68.3125" y1="70.8" x2="63.3125" y2="70.8" style="visibility: inherit;" fill="rgb(0, 0, 0)" stroke="rgb(204, 204, 204)" stroke-width="1px"></line><line x1="68.3125" y1="53.10000000000001" x2="63.3125" y2="53.10000000000001" style="visibility: inherit;" fill="rgb(0, 0, 0)" stroke="rgb(204, 204, 204)" stroke-width="1px"></line><line x1="68.3125" y1="35.400000000000006" x2="63.3125" y2="35.400000000000006" style="visibility: inherit;" fill="rgb(0, 0, 0)" stroke="rgb(204, 204, 204)" stroke-width="1px"></line><line x1="68.3125" y1="17.69999999999999" x2="63.3125" y2="17.69999999999999" style="visibility: inherit;" fill="rgb(0, 0, 0)" stroke="rgb(204, 204, 204)" stroke-width="1px"></line><line x1="68.3125" y1="0" x2="63.3125" y2="0" style="visibility: inherit;" fill="rgb(0, 0, 0)" stroke="rgb(204, 204, 204)" stroke-width="1px"></line></g><g transform="translate(58.3125, 0)"><text x="0" y="177" dx="0em" dy="0.3em" style="text-anchor: end; visibility: hidden; font-family: &quot;Helvetica Neue&quot;, sans-serif; font-size: 12px; font-weight: 200;" fill="rgb(50, 49, 63)" stroke="none" stroke-width="1px">-6e+3</text><text x="0" y="159.3" dx="0em" dy="0.3em" style="text-anchor: end; visibility: inherit; font-family: &quot;Helvetica Neue&quot;, sans-serif; font-size: 12px; font-weight: 200;" fill="rgb(50, 49, 63)" stroke="none" stroke-width="1px">-4e+3</text><text x="0" y="141.6" dx="0em" dy="0.3em" style="text-anchor: end; visibility: hidden; font-family: &quot;Helvetica Neue&quot;, sans-serif; font-size: 12px; font-weight: 200;" fill="rgb(50, 49, 63)" stroke="none" stroke-width="1px">-2e+3</text><text x="0" y="123.9" dx="0em" dy="0.3em" style="text-anchor: end; visibility: inherit; font-family: &quot;Helvetica Neue&quot;, sans-serif; font-size: 12px; font-weight: 200;" fill="rgb(50, 49, 63)" stroke="none" stroke-width="1px">0</text><text x="0" y="106.2" dx="0em" dy="0.3em" style="text-anchor: end; visibility: hidden; font-family: &quot;Helvetica Neue&quot;, sans-serif; font-size: 12px; font-weight: 200;" fill="rgb(50, 49, 63)" stroke="none" stroke-width="1px">2e+3</text><text x="0" y="88.5" dx="0em" dy="0.3em" style="text-anchor: end; visibility: inherit; font-family: &quot;Helvetica Neue&quot;, sans-serif; font-size: 12px; font-weight: 200;" fill="rgb(50, 49, 63)" stroke="none" stroke-width="1px">4e+3</text><text x="0" y="70.8" dx="0em" dy="0.3em" style="text-anchor: end; visibility: hidden; font-family: &quot;Helvetica Neue&quot;, sans-serif; font-size: 12px; font-weight: 200;" fill="rgb(50, 49, 63)" stroke="none" stroke-width="1px">6e+3</text><text x="0" y="53.10000000000001" dx="0em" dy="0.3em" style="text-anchor: end; visibility: inherit; font-family: &quot;Helvetica Neue&quot;, sans-serif; font-size: 12px; font-weight: 200;" fill="rgb(50, 49, 63)" stroke="none" stroke-width="1px">8e+3</text><text x="0" y="35.400000000000006" dx="0em" dy="0.3em" style="text-anchor: end; visibility: hidden; font-family: &quot;Helvetica Neue&quot;, sans-serif; font-size: 12px; font-weight: 200;" fill="rgb(50, 49, 63)" stroke="none" stroke-width="1px">1e+4</text><text x="0" y="17.69999999999999" dx="0em" dy="0.3em" style="text-anchor: end; visibility: inherit; font-family: &quot;Helvetica Neue&quot;, sans-serif; font-size: 12px; font-weight: 200;" fill="rgb(50, 49, 63)" stroke="none" stroke-width="1px">1.2e+4</text><text x="0" y="0" dx="0em" dy="0.3em" style="text-anchor: end; visibility: hidden; font-family: &quot;Helvetica Neue&quot;, sans-serif; font-size: 12px; font-weight: 200;" fill="rgb(50, 49, 63)" stroke="none" stroke-width="1px">1.4e+4</text></g><line x1="68.3125" y1="0" x2="68.3125" y2="177" fill="rgb(0, 0, 0)" stroke="rgb(204, 204, 204)" stroke-width="1px"></line></g></g><g transform="translate(68, 0)" clip-path="url(#clip_0)"><clipPath id="clip_0"><rect width="261" height="176"></rect></clipPath><g><g><g><line x1="0" y1="0" x2="0" y2="177" fill="rgb(0, 0, 0)" stroke="rgb(60, 60, 60)" stroke-width="1px" opacity="0.25"></line><line x1="21.807291666666664" y1="0" x2="21.807291666666664" y2="177" fill="rgb(0, 0, 0)" stroke="rgb(60, 60, 60)" stroke-width="1px" opacity="0.25"></line><line x1="43.61458333333333" y1="0" x2="43.61458333333333" y2="177" fill="rgb(0, 0, 0)" stroke="rgb(60, 60, 60)" stroke-width="1px" opacity="0.25"></line><line x1="65.421875" y1="0" x2="65.421875" y2="177" fill="rgb(0, 0, 0)" stroke="rgb(60, 60, 60)" stroke-width="1px" opacity="0.25"></line><line x1="87.22916666666666" y1="0" x2="87.22916666666666" y2="177" fill="rgb(0, 0, 0)" stroke="rgb(60, 60, 60)" stroke-width="1px" opacity="0.25"></line><line x1="109.03645833333334" y1="0" x2="109.03645833333334" y2="177" fill="rgb(0, 0, 0)" stroke="rgb(60, 60, 60)" stroke-width="1px" opacity="0.25"></line><line x1="130.84375" y1="0" x2="130.84375" y2="177" fill="rgb(0, 0, 0)" stroke="rgb(60, 60, 60)" stroke-width="1px" opacity="0.25"></line><line x1="152.65104166666669" y1="0" x2="152.65104166666669" y2="177" fill="rgb(0, 0, 0)" stroke="rgb(60, 60, 60)" stroke-width="1px" opacity="0.25"></line><line x1="174.45833333333331" y1="0" x2="174.45833333333331" y2="177" fill="rgb(0, 0, 0)" stroke="rgb(60, 60, 60)" stroke-width="1px" opacity="0.25"></line><line x1="196.265625" y1="0" x2="196.265625" y2="177" fill="rgb(0, 0, 0)" stroke="rgb(60, 60, 60)" stroke-width="1px" opacity="0.25"></line><line x1="218.07291666666669" y1="0" x2="218.07291666666669" y2="177" fill="rgb(0, 0, 0)" stroke="rgb(60, 60, 60)" stroke-width="1px" opacity="0.25"></line><line x1="239.88020833333331" y1="0" x2="239.88020833333331" y2="177" fill="rgb(0, 0, 0)" stroke="rgb(60, 60, 60)" stroke-width="1px" opacity="0.25"></line><line x1="261.6875" y1="0" x2="261.6875" y2="177" fill="rgb(0, 0, 0)" stroke="rgb(60, 60, 60)" stroke-width="1px" opacity="0.25"></line></g><g><line x1="0" y1="177" x2="261.6875" y2="177" fill="rgb(0, 0, 0)" stroke="rgb(60, 60, 60)" stroke-width="1px" opacity="0.25"></line><line x1="0" y1="159.3" x2="261.6875" y2="159.3" fill="rgb(0, 0, 0)" stroke="rgb(60, 60, 60)" stroke-width="1px" opacity="0.25"></line><line x1="0" y1="141.6" x2="261.6875" y2="141.6" fill="rgb(0, 0, 0)" stroke="rgb(60, 60, 60)" stroke-width="1px" opacity="0.25"></line><line x1="0" y1="123.9" x2="261.6875" y2="123.9" fill="rgb(0, 0, 0)" stroke="rgb(60, 60, 60)" stroke-width="1px" opacity="0.25"></line><line x1="0" y1="106.2" x2="261.6875" y2="106.2" fill="rgb(0, 0, 0)" stroke="rgb(60, 60, 60)" stroke-width="1px" opacity="0.25"></line><line x1="0" y1="88.5" x2="261.6875" y2="88.5" fill="rgb(0, 0, 0)" stroke="rgb(60, 60, 60)" stroke-width="1px" opacity="0.25"></line><line x1="0" y1="70.8" x2="261.6875" y2="70.8" fill="rgb(0, 0, 0)" stroke="rgb(60, 60, 60)" stroke-width="1px" opacity="0.25"></line><line x1="0" y1="53.10000000000001" x2="261.6875" y2="53.10000000000001" fill="rgb(0, 0, 0)" stroke="rgb(60, 60, 60)" stroke-width="1px" opacity="0.25"></line><line x1="0" y1="35.400000000000006" x2="261.6875" y2="35.400000000000006" fill="rgb(0, 0, 0)" stroke="rgb(60, 60, 60)" stroke-width="1px" opacity="0.25"></line><line x1="0" y1="17.69999999999999" x2="261.6875" y2="17.69999999999999" fill="rgb(0, 0, 0)" stroke="rgb(60, 60, 60)" stroke-width="1px" opacity="0.25"></line><line x1="0" y1="0" x2="261.6875" y2="0" fill="rgb(0, 0, 0)" stroke="rgb(60, 60, 60)" stroke-width="1px" opacity="0.25"></line></g></g></g><g><g><line x1="0" y1="123.9" x2="261.6875" y2="123.9" fill="rgb(0, 0, 0)" stroke="rgb(153, 153, 153)" stroke-width="1.5px"></line></g></g><g><g><line x1="21.807291666666664" y1="0" x2="21.807291666666664" y2="177" fill="rgb(0, 0, 0)" stroke="rgb(153, 153, 153)" stroke-width="1.5px"></line></g></g><g><g><g><g><g><path stroke="rgb(255, 112, 67)" stroke-width="2px" d="M21.807291666666664,-10.034396191406273L23.98802083333333,40.35332782287597L26.168750000000003,-21.409378745316474L28.34947916666667,44.30313516607845L30.530208333333334,84.34155740683859L32.7109375,94.98717846653382L34.891666666666666,127.30454265706175L37.07239583333333,133.07579902345472L39.253125,146.47503450581837L41.43385416666666,150.46490422071207L43.61458333333333,129.5806173176576L45.795312499999994,128.0862161141687L47.97604166666666,140.411150120105L50.15677083333334,154.8168596988471L52.337500000000006,159.89230703288786L54.51822916666667,153.11396584725554L56.69895833333334,137.52776958921498L58.8796875,134.0998816740215L61.06041666666667,125.86609980019156L63.241145833333334,126.56434896389817L65.421875,117.08547476593881L67.60260416666668,128.75820771681322L69.78333333333333,129.8957884405669L71.96406250000001,136.3789428904435L74.14479166666666,126.06058362543601L76.32552083333334,115.14246968083697L78.50625,105.98853604305489L80.68697916666667,139.84820290713995L82.86770833333333,131.90366473381502L85.0484375,155.72043478914946L87.22916666666666,143.92163030453867L89.40989583333334,135.43987932409564L91.59062499999999,116.58957545896673L93.77135416666667,121.41949179559879L95.95208333333332,102.92850618526738L98.1328125,99.54016495550852L100.31354166666668,87.0040354875202L102.49427083333333,71.35789016019622L104.67500000000001,94.21148898834223L106.85572916666666,79.94536754385696L109.03645833333334,101.56216068281208L111.2171875,75.75018440507823L113.39791666666667,69.3278946255676L115.57864583333333,73.22438797718748L117.759375,70.01207389925983L119.94010416666666,38.56913341962613L122.12083333333334,66.53296609774398L124.30156249999999,76.83347363348705L126.48229166666667,72.90452859410178L128.66302083333332,68.94500043767907L130.84375,35.87433073119709L133.02447916666665,41.60468494264117L135.20520833333336,33.74442743041473L137.3859375,49.5174869758435L139.56666666666666,65.74153002731316L141.74739583333331,79.3813139343618L143.92812500000002,91.8463959778074L146.10885416666667,73.8436678601195L148.28958333333333,87.87045103345567L150.47031249999998,107.17305588618763L152.65104166666669,64.4162631020238L154.83177083333334,47.567349736214L157.0125,68.08239911418957L159.19322916666664,62.99281877515432L161.37395833333335,45.65536935103003L163.5546875,62.97070040944618L165.73541666666665,64.98108203277708L167.91614583333336,58.089047637635005L170.096875,55.9091619028935L172.27760416666666,60.519355100720475L174.45833333333331,73.93383682508073L176.63906250000002,84.0216237649703L178.81979166666667,108.3162028624978L181.00052083333333,86.98985029171743L183.18124999999998,51.18301201096796L185.36197916666669,38.16120990189327L187.54270833333334,44.8361265759016L189.7234375,62.53845320140033L191.90416666666664,52.53268920599645L194.08489583333335,52.481963787269734L196.265625,69.07125553310404L198.44635416666665,55.70270646439367L200.62708333333336,72.51542201340183L202.8078125,86.46209643558016L204.98854166666666,84.89736667970747L207.16927083333331,60.304810593761985L209.35000000000002,30.870473348444676L211.53072916666667,50.997308882113686L213.71145833333333,60.611271061690104L215.89218749999998,90.15510595732655L218.07291666666669,60.500366777520924L220.25364583333334,80.25057151182506L222.434375,47.450553356313776L224.61510416666664,73.28528611046795L226.79583333333335,47.612919010030794L228.9765625,59.9406712595341L231.15729166666665,87.03728692075951L233.33802083333336,94.46914872472134L235.51875,97.58840259909061L237.69947916666666,73.58564810242312" style="fill: none;" fill="none"></path></g></g></g></g><g opacity="0.2"><g><g><g><path stroke="rgb(255, 112, 67)" stroke-width="2px" d="M21.807291666666664,-10.034396191406273L23.98802083333333,70.58596223144531L26.168750000000003,-80.70157705078128L28.34947916666667,121.5810515258789L30.530208333333334,136.615721484375L32.7109375,109.71390481567383L34.891666666666666,173.51889052734376L37.07239583333333,141.4903462097168L39.253125,166.2363041748047L41.43385416666666,156.38939575195312L43.61458333333333,98.44360590820312L45.795312499999994,125.852746774292L47.97604166666666,158.8583080810547L50.15677083333334,176.39720178222657L52.337500000000006,167.4995120361328L54.51822916666667,142.9512346801758L56.69895833333334,114.15507075805664L58.8796875,128.95892014160157L61.06041666666667,113.51668132324218L63.241145833333334,127.61165888671874L65.421875,102.86768331298828L67.60260416666668,146.266923046875L69.78333333333333,131.60213706665039L71.96406250000001,146.1035977661133L74.14479166666666,110.58311806640624L76.32552083333334,98.76534532470703L78.50625,92.25765900878906L80.68697916666667,190.63765122070313L82.86770833333333,119.98686479187012L85.0484375,191.44557670898436L87.22916666666666,126.22342749023437L89.40989583333334,122.71725454101562L91.59062499999999,88.3141219116211L93.77135416666667,128.66436595458984L95.95208333333332,75.19202856445311L98.1328125,94.45765319824218L100.31354166666668,68.19984147949219L102.49427083333333,47.88867231445312L104.67500000000001,128.4918871032715L106.85572916666666,58.546185424804676L109.03645833333334,133.9873503479004L111.2171875,37.03222001953125L113.39791666666667,59.69445996093749L115.57864583333333,79.06912800292969L117.759375,65.19360278320313L119.94010416666666,-8.595277294921857L122.12083333333334,108.47871511230468L124.30156249999999,92.28423493652343L126.48229166666667,67.01111103515626L128.66302083333332,63.00570820312501L130.84375,-13.731673828124997L133.02447916666665,50.200216259765625L135.20520833333336,21.954041162109377L137.3859375,73.17707629394532L139.56666666666666,90.07759460449219L141.74739583333331,99.84098979492188L143.92812500000002,110.54401904296874L146.10885416666667,46.83957568359375L148.28958333333333,108.91062579345703L150.47031249999998,136.1269631652832L152.65104166666669,0.2810739257812429L154.83177083333334,22.293979687500013L157.0125,98.85497318115235L159.19322916666664,55.358448266601556L161.37395833333335,19.649195214843758L163.5546875,88.94369699707032L165.73541666666665,67.99665446777342L167.91614583333336,47.75099604492189L170.096875,52.639333300781246L172.27760416666666,67.43464489746093L174.45833333333331,94.0555594116211L176.63906250000002,99.15330417480469L178.81979166666667,144.75807150878907L181.00052083333333,55.000321435546866L183.18124999999998,-2.5272454101562403L185.36197916666669,18.62850673828126L187.54270833333334,54.848501586914054L189.7234375,89.09194313964844L191.90416666666664,37.52404321289063L194.08489583333335,52.405875659179685L196.265625,93.95519315185547L198.44635416666665,35.64988286132811L200.62708333333336,97.73449533691407L202.8078125,107.38210806884766L204.98854166666666,82.55027204589844L207.16927083333331,23.415976464843766L209.35000000000002,-13.281032519531266L211.53072916666667,81.1875621826172L213.71145833333333,75.03221433105467L215.89218749999998,134.47085830078126L218.07291666666669,16.018258007812506L220.25364583333334,109.87587861328124L222.434375,-1.7494738769531182L224.61510416666664,112.03738524169921L226.79583333333335,9.104368359375002L228.9765625,78.43229963378906L231.15729166666665,127.68221041259766L233.33802083333336,105.61694143066406L235.51875,102.26728341064452L237.69947916666666,37.58151635742186" style="fill: none;" fill="none"></path></g></g></g></g></g></g><g transform="translate(68, 177)" clip-path="url(#clip_1)"><clipPath id="clip_1"><rect width="261" height="22"></rect></clipPath><g><g><line x1="0" y1="0" x2="0" y2="5" style="visibility: inherit;" fill="rgb(0, 0, 0)" stroke="rgb(204, 204, 204)" stroke-width="1px"></line><line x1="21.807291666666664" y1="0" x2="21.807291666666664" y2="5" style="visibility: inherit;" fill="rgb(0, 0, 0)" stroke="rgb(204, 204, 204)" stroke-width="1px"></line><line x1="43.61458333333333" y1="0" x2="43.61458333333333" y2="5" style="visibility: inherit;" fill="rgb(0, 0, 0)" stroke="rgb(204, 204, 204)" stroke-width="1px"></line><line x1="65.421875" y1="0" x2="65.421875" y2="5" style="visibility: inherit;" fill="rgb(0, 0, 0)" stroke="rgb(204, 204, 204)" stroke-width="1px"></line><line x1="87.22916666666666" y1="0" x2="87.22916666666666" y2="5" style="visibility: inherit;" fill="rgb(0, 0, 0)" stroke="rgb(204, 204, 204)" stroke-width="1px"></line><line x1="109.03645833333334" y1="0" x2="109.03645833333334" y2="5" style="visibility: inherit;" fill="rgb(0, 0, 0)" stroke="rgb(204, 204, 204)" stroke-width="1px"></line><line x1="130.84375" y1="0" x2="130.84375" y2="5" style="visibility: inherit;" fill="rgb(0, 0, 0)" stroke="rgb(204, 204, 204)" stroke-width="1px"></line><line x1="152.65104166666669" y1="0" x2="152.65104166666669" y2="5" style="visibility: inherit;" fill="rgb(0, 0, 0)" stroke="rgb(204, 204, 204)" stroke-width="1px"></line><line x1="174.45833333333331" y1="0" x2="174.45833333333331" y2="5" style="visibility: inherit;" fill="rgb(0, 0, 0)" stroke="rgb(204, 204, 204)" stroke-width="1px"></line><line x1="196.265625" y1="0" x2="196.265625" y2="5" style="visibility: inherit;" fill="rgb(0, 0, 0)" stroke="rgb(204, 204, 204)" stroke-width="1px"></line><line x1="218.07291666666669" y1="0" x2="218.07291666666669" y2="5" style="visibility: inherit;" fill="rgb(0, 0, 0)" stroke="rgb(204, 204, 204)" stroke-width="1px"></line><line x1="239.88020833333331" y1="0" x2="239.88020833333331" y2="5" style="visibility: inherit;" fill="rgb(0, 0, 0)" stroke="rgb(204, 204, 204)" stroke-width="1px"></line><line x1="261.6875" y1="0" x2="261.6875" y2="5" style="visibility: inherit;" fill="rgb(0, 0, 0)" stroke="rgb(204, 204, 204)" stroke-width="1px"></line></g><g transform="translate(0, 8)"><text x="0" y="0" dx="0em" dy="0.95em" style="text-anchor: middle; visibility: hidden; font-family: &quot;Helvetica Neue&quot;, sans-serif; font-size: 12px; font-weight: 200;" fill="rgb(50, 49, 63)" stroke="none" stroke-width="1px">-100</text><text x="21.807291666666664" y="0" dx="0em" dy="0.95em" style="text-anchor: middle; visibility: inherit; font-family: &quot;Helvetica Neue&quot;, sans-serif; font-size: 12px; font-weight: 200;" fill="rgb(50, 49, 63)" stroke="none" stroke-width="1px">0</text><text x="43.61458333333333" y="0" dx="0em" dy="0.95em" style="text-anchor: middle; visibility: hidden; font-family: &quot;Helvetica Neue&quot;, sans-serif; font-size: 12px; font-weight: 200;" fill="rgb(50, 49, 63)" stroke="none" stroke-width="1px">100</text><text x="65.421875" y="0" dx="0em" dy="0.95em" style="text-anchor: middle; visibility: inherit; font-family: &quot;Helvetica Neue&quot;, sans-serif; font-size: 12px; font-weight: 200;" fill="rgb(50, 49, 63)" stroke="none" stroke-width="1px">200</text><text x="87.22916666666666" y="0" dx="0em" dy="0.95em" style="text-anchor: middle; visibility: hidden; font-family: &quot;Helvetica Neue&quot;, sans-serif; font-size: 12px; font-weight: 200;" fill="rgb(50, 49, 63)" stroke="none" stroke-width="1px">300</text><text x="109.03645833333334" y="0" dx="0em" dy="0.95em" style="text-anchor: middle; visibility: inherit; font-family: &quot;Helvetica Neue&quot;, sans-serif; font-size: 12px; font-weight: 200;" fill="rgb(50, 49, 63)" stroke="none" stroke-width="1px">400</text><text x="130.84375" y="0" dx="0em" dy="0.95em" style="text-anchor: middle; visibility: hidden; font-family: &quot;Helvetica Neue&quot;, sans-serif; font-size: 12px; font-weight: 200;" fill="rgb(50, 49, 63)" stroke="none" stroke-width="1px">500</text><text x="152.65104166666669" y="0" dx="0em" dy="0.95em" style="text-anchor: middle; visibility: inherit; font-family: &quot;Helvetica Neue&quot;, sans-serif; font-size: 12px; font-weight: 200;" fill="rgb(50, 49, 63)" stroke="none" stroke-width="1px">600</text><text x="174.45833333333331" y="0" dx="0em" dy="0.95em" style="text-anchor: middle; visibility: hidden; font-family: &quot;Helvetica Neue&quot;, sans-serif; font-size: 12px; font-weight: 200;" fill="rgb(50, 49, 63)" stroke="none" stroke-width="1px">700</text><text x="196.265625" y="0" dx="0em" dy="0.95em" style="text-anchor: middle; visibility: inherit; font-family: &quot;Helvetica Neue&quot;, sans-serif; font-size: 12px; font-weight: 200;" fill="rgb(50, 49, 63)" stroke="none" stroke-width="1px">800</text><text x="218.07291666666669" y="0" dx="0em" dy="0.95em" style="text-anchor: middle; visibility: hidden; font-family: &quot;Helvetica Neue&quot;, sans-serif; font-size: 12px; font-weight: 200;" fill="rgb(50, 49, 63)" stroke="none" stroke-width="1px">900</text><text x="239.88020833333331" y="0" dx="0em" dy="0.95em" style="text-anchor: middle; visibility: inherit; font-family: &quot;Helvetica Neue&quot;, sans-serif; font-size: 12px; font-weight: 200;" fill="rgb(50, 49, 63)" stroke="none" stroke-width="1px">1k</text><text x="261.6875" y="0" dx="0em" dy="0.95em" style="text-anchor: middle; visibility: hidden; font-family: &quot;Helvetica Neue&quot;, sans-serif; font-size: 12px; font-weight: 200;" fill="rgb(50, 49, 63)" stroke="none" stroke-width="1px">1.1k</text></g><line x1="0" y1="0" x2="261.6875" y2="0" fill="rgb(0, 0, 0)" stroke="rgb(204, 204, 204)" stroke-width="1px"></line></g></g></g></g></svg>